<?xml version="1.0" encoding="utf-8"?>
<!-- Generator: Adobe Illustrator 24.3.0, SVG Export Plug-In . SVG Version: 6.00 Build 0)  -->
<svg version="1.1" id="Layer_1" xmlns="http://www.w3.org/2000/svg" xmlns:xlink="http://www.w3.org/1999/xlink" x="0px" y="0px"
	 viewBox="0 0 300 300" style="enable-background:new 0 0 300 300;" xml:space="preserve">
<style type="text/css">
	.st0{fill:#D1EFFA;}
	.st1{fill:#00A8E1;}
	.st2{fill:#232F3E;}
</style>
<g id="Layer_2_1_">
	<g id="Ebene_1">
		<path class="st0" d="M148.78,191.05v-0.13c0.13-0.17,0.37-0.27,0.57-0.23c0.97-0.03,1.9-0.03,2.87,0c0.2,0,0.43,0.07,0.57,0.23
			v0.13H148.78z"/>
		<path class="st1" d="M152.78,190.92c-1.33-0.03-2.67-0.03-4,0c-1.83-0.1-3.67-0.17-5.5-0.3c-4.87-0.37-9.7-1.1-14.44-2.2
			c-16.37-3.8-30.74-11.44-43.27-22.54c-1.17-1.03-2.27-2.1-3.4-3.17c-0.27-0.23-0.5-0.57-0.63-0.9c-0.2-0.47-0.1-0.97,0.23-1.33
			c0.33-0.37,0.87-0.5,1.33-0.3c0.3,0.13,0.6,0.27,0.87,0.43c11.97,7.4,25.04,12.8,38.74,16c4.6,1.07,9.24,1.9,13.9,2.5
			c6.7,0.83,13.47,1.13,20.2,0.9c3.63-0.1,7.23-0.43,10.84-0.9c8.4-1.07,16.7-2.97,24.74-5.63c4.23-1.4,8.37-3,12.4-4.87
			c0.6-0.33,1.33-0.43,2-0.27c1.1,0.27,1.77,1.4,1.5,2.5c-0.03,0.13-0.1,0.3-0.17,0.43c-0.27,0.5-0.63,0.93-1.1,1.27
			c-3.83,3-7.97,5.63-12.34,7.83c-8.23,4.17-17.04,7.13-26.1,8.83C163.35,190.15,158.08,190.72,152.78,190.92z"/>
		<path class="st1" d="M103.41,123.34c0.83-0.5,1.7-1.03,2.6-1.5c2.33-1.2,4.93-1.8,7.57-1.67c1.9,0.1,3.63,0.63,4.97,2.03
			c1.27,1.3,1.73,2.9,1.87,4.63c0.03,0.37,0.03,0.73,0.03,1.13v17.27c0,1.5-0.2,1.7-1.7,1.7h-4.07c-0.27,0-0.53,0-0.8-0.03
			c-0.4-0.03-0.73-0.37-0.8-0.77c-0.07-0.37-0.07-0.73-0.07-1.1V129.6c0.03-0.63-0.03-1.23-0.2-1.83c-0.27-1.03-1.2-1.77-2.27-1.83
			c-1.97-0.13-3.93,0.27-5.73,1.1c-0.27,0.07-0.43,0.33-0.4,0.6v17.54c0,0.33,0,0.63-0.07,0.97c0,0.47-0.37,0.8-0.83,0.8l0,0
			c-0.5,0.03-1,0.03-1.53,0.03h-3.53c-1.23,0-1.5-0.3-1.5-1.53v-15.77c0-0.57-0.03-1.17-0.17-1.73c-0.23-1.13-1.2-1.93-2.33-2
			c-2-0.13-4.03,0.27-5.83,1.13c-0.27,0.07-0.43,0.37-0.37,0.63v17.77c0,1.23-0.27,1.5-1.5,1.5h-4.47c-1.17,0-1.47-0.33-1.47-1.47
			v-23.14c0-0.27,0.03-0.53,0.1-0.8c0.13-0.4,0.53-0.63,0.93-0.63H86c0.6,0,0.97,0.37,1.17,0.93c0.17,0.47,0.27,0.9,0.43,1.4
			c0.33,0,0.53-0.23,0.77-0.37c1.83-1.13,3.77-2.1,5.93-2.5c1.67-0.33,3.33-0.33,5,0c1.57,0.33,2.97,1.27,3.87,2.6
			c0.07,0.1,0.13,0.17,0.2,0.23C103.34,123.27,103.37,123.27,103.41,123.34z"/>
		<path class="st2" d="M172.52,139.94c0.2-0.67,0.4-1.3,0.6-1.97c1.53-5.17,3.07-10.3,4.6-15.47l0.2-0.6
			c0.17-0.6,0.73-0.97,1.33-0.97h5.07c1.27,0,1.53,0.37,1.1,1.57l-2,5.3c-2.23,5.8-4.47,11.64-6.7,17.44
			c-0.07,0.2-0.17,0.4-0.23,0.6c-0.23,0.7-0.93,1.17-1.67,1.1c-1.47-0.03-2.93-0.03-4.4,0c-1.03,0.03-1.63-0.43-2-1.37
			c-0.83-2.2-1.7-4.43-2.53-6.63c-2-5.23-4.03-10.47-6.03-15.74c-0.2-0.4-0.33-0.87-0.43-1.3c-0.1-0.67,0.13-1,0.8-1
			c1.9-0.03,3.8,0,5.67,0c0.8,0,1.17,0.53,1.37,1.23c0.37,1.27,0.73,2.57,1.13,3.83c1.37,4.63,2.7,9.3,4.07,13.94
			C172.42,139.94,172.45,139.94,172.52,139.94z"/>
		<path class="st1" d="M54.13,124.6c0.23-0.07,0.43-0.2,0.57-0.4c0.6-0.6,1.23-1.17,1.9-1.7c1.73-1.33,3.9-2,6.07-1.83
			c0.87,0.03,1.17,0.3,1.23,1.13c0.07,1.13,0.03,2.3,0.03,3.43c0.03,0.47,0,0.9-0.07,1.37c-0.13,0.6-0.37,0.83-0.97,0.9
			c-0.47,0.03-0.9,0-1.37-0.03c-2.23-0.2-4.4,0.23-6.5,0.93c-0.47,0.17-0.47,0.5-0.47,0.87v16c0,0.3,0,0.57-0.03,0.87
			c-0.03,0.43-0.37,0.77-0.8,0.77c-0.23,0.03-0.5,0.03-0.73,0.03h-4.33c-0.23,0-0.5,0-0.73-0.03c-0.43-0.03-0.77-0.4-0.8-0.83
			c-0.03-0.27-0.03-0.53-0.03-0.8V122.6c0-1.53,0.17-1.7,1.7-1.7H52c0.87,0,1.27,0.3,1.5,1.13C53.73,122.87,53.93,123.7,54.13,124.6
			z"/>
		<path class="st1" d="M210.09,158.41c2.2,0.07,4.37,0.2,6.5,0.77c0.6,0.17,1.17,0.37,1.73,0.63c0.77,0.3,1.27,1.03,1.37,1.83
			c0.13,0.93,0.17,1.9,0.1,2.87c-0.43,5.7-2.2,11.2-5.13,16.1c-1.07,1.77-2.37,3.37-3.87,4.77c-0.3,0.3-0.67,0.53-1.07,0.67
			c-0.63,0.17-1.03-0.17-1.07-0.8c0.03-0.33,0.1-0.67,0.23-1c1.17-3.13,2.3-6.23,3.2-9.47c0.53-1.77,0.9-3.57,1.13-5.4
			c0.07-0.67,0.1-1.33,0.03-2c-0.03-1.13-0.77-2.1-1.87-2.43c-1.03-0.33-2.1-0.53-3.2-0.6c-3.07-0.13-6.13,0-9.17,0.4l-4.03,0.5
			c-0.43,0.03-0.83,0-1.07-0.4c-0.23-0.4-0.13-0.8,0.1-1.2c0.27-0.37,0.6-0.7,1-0.93c2.47-1.77,5.23-2.83,8.17-3.53
			C205.46,158.71,207.76,158.48,210.09,158.41z"/>
		<path class="st2" d="M196.13,133.94v12c-0.07,0.67-0.37,0.97-1.03,1c-1.8,0.03-3.57,0.03-5.37,0c-0.67,0-0.97-0.33-1.03-0.97
			c-0.03-0.2-0.03-0.43-0.03-0.63v-23.07c0.03-1.03,0.3-1.33,1.33-1.33h4.8c1.03,0,1.33,0.3,1.33,1.33L196.13,133.94L196.13,133.94z
			"/>
		<path class="st1" d="M67.13,133.87v-11.84c0.03-0.8,0.33-1.1,1.13-1.13c1.73-0.03,3.47-0.03,5.2,0c0.77,0,1,0.23,1.07,1
			c0.03,0.3,0.03,0.57,0.03,0.87v22.2c0,0.37-0.03,0.73-0.07,1.1c-0.03,0.43-0.37,0.73-0.8,0.77c-0.2,0.03-0.37,0.03-0.57,0.03H68.5
			c-0.17,0-0.3,0-0.47-0.03c-0.47-0.03-0.87-0.4-0.9-0.87c-0.03-0.27-0.03-0.53-0.03-0.8C67.13,141.47,67.13,137.67,67.13,133.87z"
			/>
		<path class="st1" d="M71,108.97c0.53-0.03,1.07,0.07,1.57,0.23c1.8,0.6,2.73,2.17,2.57,4.2c-0.13,1.73-1.43,3.13-3.17,3.4
			c-0.73,0.13-1.5,0.13-2.23,0c-1.9-0.37-3.3-1.77-3.17-4.17C66.77,110.27,68.33,108.97,71,108.97z"/>
		<path class="st2" d="M192.42,108.97c0.67-0.07,1.33,0.07,1.97,0.33c1.3,0.5,2.2,1.7,2.27,3.1c0.27,3.03-1.77,4.57-4.47,4.5
			c-0.37,0-0.73-0.07-1.1-0.13c-2.07-0.5-3.13-2.1-2.93-4.4c0.17-1.83,1.6-3.2,3.57-3.37C191.96,108.97,192.19,108.93,192.42,108.97
			z"/>
		<path class="st1" d="M42.16,131.14c-0.13-1.73-0.6-3.43-1.3-5c-1.37-2.87-3.47-4.97-6.67-5.7c-3.67-0.8-6.97,0-9.97,2.23
			c-0.2,0.2-0.43,0.37-0.7,0.5c-0.07-0.03-0.13-0.07-0.13-0.1c-0.1-0.33-0.17-0.67-0.27-1c-0.27-0.83-0.6-1.13-1.5-1.13
			c-1,0-2.03,0.03-3.03,0c-0.77-0.03-1.47,0.07-2,0.67c0,11.67,0,23.37,0.03,35.01c0.43,0.7,1.1,0.83,1.87,0.8c1.2-0.03,2.4,0,3.6,0
			c2.1,0,2.1,0,2.1-2.07v-9.5c0-0.23-0.1-0.5,0.13-0.7c1.67,1.3,3.7,2.1,5.8,2.3c2.93,0.3,5.6-0.43,7.83-2.43
			c1.63-1.5,2.83-3.43,3.47-5.57C42.33,136.71,42.4,133.94,42.16,131.14z M34.19,138.04c-0.23,1.03-0.77,1.97-1.53,2.67
			c-0.87,0.73-1.93,1.17-3.07,1.17c-1.7,0.1-3.37-0.27-4.87-1.07c-0.37-0.17-0.6-0.53-0.57-0.93v-6.03c0-2,0.03-4,0-6
			c-0.03-0.47,0.23-0.87,0.67-1.03c1.83-0.87,3.73-1.27,5.73-0.87c1.4,0.2,2.6,1.1,3.17,2.4c0.5,1.07,0.8,2.23,0.87,3.4
			C34.8,133.87,34.8,136.01,34.19,138.04z"/>
		<path class="st2" d="M283.34,136.34C283.34,136.34,283.34,136.31,283.34,136.34C283.34,136.31,283.34,136.31,283.34,136.34z"/>
		<path class="st2" d="M283.38,131.87v0.13c-0.13-0.13-0.2-0.33-0.13-0.5v-0.27c0,0,0-0.03,0.03-0.03h-0.03v-0.33h0.07
			c0-0.03-0.03-0.03-0.03-0.07c-0.07-0.63-0.2-1.27-0.37-1.87c-1.23-4.4-4-7.3-8.5-8.43c-2.1-0.5-4.23-0.57-6.37-0.23
			c-4.5,0.67-7.73,3.07-9.3,7.33c-1.53,4.07-1.5,8.53,0.03,12.6c1.33,3.7,4,6.03,7.83,7c2.03,0.5,4.17,0.63,6.27,0.33
			c7-0.83,9.9-6.13,10.37-10.74h-0.03v-0.47c-0.03-0.2-0.07-0.37,0.13-0.5v0.07c0-0.03,0.03-0.1,0.07-0.13v-3.83
			C283.41,131.91,283.38,131.91,283.38,131.87z M275.37,138.21c-0.2,0.7-0.5,1.33-0.93,1.93c-0.73,1.03-1.9,1.7-3.17,1.8
			c-0.63,0.07-1.27,0.07-1.9-0.07c-1.4-0.27-2.57-1.2-3.13-2.5c-0.5-1.03-0.8-2.17-0.9-3.3c-0.17-1.97-0.2-3.93,0.27-5.87
			c0.17-0.77,0.5-1.53,0.9-2.2c0.73-1.2,2-1.97,3.4-2.07c0.63-0.07,1.27-0.07,1.9,0.07c1.33,0.27,2.43,1.13,3.03,2.37
			c0.57,1.17,0.9,2.47,0.97,3.77c0.03,0.6,0.07,1.2,0.03,1.8C275.94,135.41,275.77,136.84,275.37,138.21z"/>
		<path class="st2" d="M224.93,109.2h-4.63c-1.27,0-1.5,0.23-1.5,1.5v10.8c0,0.23,0.1,0.47-0.07,0.7c-0.3-0.03-0.47-0.23-0.7-0.37
			c-3.47-2.03-7.1-2.4-10.77-0.7c-2.57,1.2-4.17,3.37-5.2,5.93c-1,2.47-1.23,5.07-1.17,7.7c0,2.47,0.57,4.9,1.67,7.1
			c1.27,2.43,3.1,4.3,5.77,5.1c3.63,1.13,7.03,0.57,10.14-1.73c0.23-0.13,0.37-0.37,0.67-0.43c0.17,0.37,0.3,0.77,0.37,1.17
			c0.13,0.53,0.6,0.9,1.17,0.9h0.8c1.2,0,2.37,0.03,3.53,0c0.93,0,1.2-0.3,1.23-1.27v-35.14C226.2,109.43,225.93,109.2,224.93,109.2
			z M218.83,133.74v6.07c0.07,0.4-0.17,0.77-0.53,0.93c-1.6,0.9-3.43,1.27-5.23,1c-1.53-0.17-2.87-1.1-3.57-2.47
			c-0.53-1.07-0.83-2.2-0.93-3.37c-0.27-2.1-0.1-4.23,0.4-6.27c0.17-0.57,0.37-1.1,0.67-1.63c0.7-1.3,2.03-2.13,3.5-2.23
			c1.77-0.17,3.53,0.17,5.13,0.9c0.4,0.13,0.63,0.53,0.6,0.97C218.8,129.7,218.83,131.71,218.83,133.74L218.83,133.74z"/>
		<path class="st1" d="M132.61,136.04c2.5,0.47,5.07,0.5,7.57,0.1c1.47-0.2,2.87-0.63,4.17-1.33c1.5-0.87,2.6-2.07,3.07-3.73
			c1.17-4.2-0.63-8.43-5-10c-2.13-0.7-4.4-0.93-6.63-0.63c-5.27,0.6-8.7,3.5-10.27,8.53c-1.1,3.43-0.97,6.93-0.07,10.4
			c1.17,4.43,4.1,7.07,8.53,8c2.53,0.57,5.1,0.47,7.63,0.07c1.33-0.23,2.67-0.57,3.93-1.07c0.77-0.3,1.17-0.77,1.13-1.63
			c-0.03-0.8,0-1.63,0-2.47c0-1-0.4-1.3-1.37-1.07s-1.9,0.43-2.87,0.63c-2.07,0.43-4.2,0.43-6.27,0.07c-2.83-0.57-4.67-3-4.5-6
			C131.98,135.94,132.31,135.97,132.61,136.04z M131.78,130.94c0.1-0.8,0.33-1.57,0.63-2.3c1-2.43,3.1-3.27,5.23-3.13
			c0.6,0.03,1.2,0.17,1.77,0.4c0.87,0.37,1.43,1.17,1.53,2.1c0.1,0.57,0.07,1.17-0.1,1.73c-0.4,1.2-1.37,1.7-2.53,1.93
			c-0.7,0.17-1.43,0.23-2.17,0.17c-1.3,0-2.63-0.1-3.93-0.3C131.71,131.47,131.71,131.47,131.78,130.94z"/>
		<path class="st2" d="M245.07,136.37c1.93-0.13,3.87-0.5,5.6-1.43c1.77-0.87,3-2.5,3.37-4.43c0.23-1.2,0.23-2.47-0.03-3.67
			c-0.7-3-2.6-4.87-5.47-5.83c-1.6-0.5-3.3-0.7-4.97-0.63c-5.6,0.13-9.87,2.97-11.6,8.57c-1.17,3.7-1,7.47,0.13,11.17
			c1.17,3.8,3.83,6.1,7.63,7.13c1.63,0.4,3.33,0.57,5,0.5c2.43-0.03,4.87-0.5,7.17-1.37c0.97-0.37,1.2-0.7,1.2-1.73v-2.4
			c-0.03-0.97-0.43-1.3-1.4-1.07c-0.73,0.2-1.43,0.37-2.17,0.53c-2.23,0.53-4.57,0.63-6.83,0.23c-2.27-0.43-3.8-1.73-4.4-4
			c-0.17-0.67-0.3-1.33-0.37-2.03c0.17,0,0.33,0,0.47,0.07C240.6,136.37,242.83,136.54,245.07,136.37z M238.1,131.04
			c0.23-1.3,0.53-2.57,1.33-3.63c1.23-1.63,2.93-2.1,4.87-1.9c0.17,0,0.3,0.07,0.47,0.07c2.33,0.37,2.9,2.23,2.47,4.03
			c-0.33,1.33-1.43,1.83-2.67,2.07c-0.67,0.13-1.37,0.2-2.07,0.17c-1.37-0.03-2.7-0.13-4.03-0.33
			C238.17,131.47,238.03,131.34,238.1,131.04L238.1,131.04z"/>
	</g>
</g>
</svg>
