<svg xmlns="http://www.w3.org/2000/svg" xmlns:xlink="http://www.w3.org/1999/xlink" version="1.1" x="0px" y="0px" viewBox="0 0 52 52" style="enable-background:new 0 0 52 52;max-width:100%" xml:space="preserve" height="100%"><style type="text/css" style="" fill="rgb(253, 172, 8)">
	.st0{fill:#2A3D4F;}
	.st1{fill:none;stroke:#000000;stroke-width:2;stroke-miterlimit:10;}
</style><g style="" fill="rgb(253, 172, 8)"><g style="" fill="rgb(253, 172, 8)"><path d="M49,16H3c-0.5,0-0.9-0.3-1-0.8s0.1-0.9,0.5-1.1l23-12c0.3-0.2,0.6-0.2,0.9,0l23,12c0.4,0.2,0.6,0.7,0.5,1.1S49.5,16,49,16    z M7.1,14h37.8L26,4.1L7.1,14z" style="" fill="rgb(253, 172, 8)"/></g><g style="" fill="rgb(253, 172, 8)"><path d="M44,38H8V14h36V38z M10,36h32V16H10V36z" style="" fill="rgb(253, 172, 8)"/></g><g style="" fill="rgb(253, 172, 8)"><path d="M32,38H20V26c0-2.2,1.8-4,4-4h4c2.2,0,4,1.8,4,4V38z M22,36h8V26c0-1.1-0.9-2-2-2h-4c-1.1,0-2,0.9-2,2V36z" style="" fill="rgb(253, 172, 8)"/></g><g style="" fill="rgb(253, 172, 8)"><path d="M29,11h-6c-0.6,0-1-0.4-1-1s0.4-1,1-1h6c0.6,0,1,0.4,1,1S29.6,11,29,11z" style="" fill="rgb(253, 172, 8)"/></g><g style="" fill="rgb(253, 172, 8)"><path d="M26,44c-0.6,0-1-0.4-1-1v-6c0-0.6,0.4-1,1-1s1,0.4,1,1v6C27,43.6,26.6,44,26,44z" style="" fill="rgb(253, 172, 8)"/></g><g style="" fill="rgb(253, 172, 8)"><path d="M26,50c-2.2,0-4-1.8-4-4s1.8-4,4-4s4,1.8,4,4S28.2,50,26,50z M26,44c-1.1,0-2,0.9-2,2s0.9,2,2,2s2-0.9,2-2S27.1,44,26,44z    " style="" fill="rgb(253, 172, 8)"/></g><g style="" fill="rgb(253, 172, 8)"><path d="M41,47H29c-0.6,0-1-0.4-1-1s0.4-1,1-1h12c0.6,0,1,0.4,1,1S41.6,47,41,47z" style="" fill="rgb(253, 172, 8)"/></g><g style="" fill="rgb(253, 172, 8)"><path d="M23,47H11c-0.6,0-1-0.4-1-1s0.4-1,1-1h12c0.6,0,1,0.4,1,1S23.6,47,23,47z" style="" fill="rgb(253, 172, 8)"/></g><g style="" fill="rgb(253, 172, 8)"><path d="M43,31H31c-0.6,0-1-0.4-1-1s0.4-1,1-1h12c0.6,0,1,0.4,1,1S43.6,31,43,31z" style="" fill="rgb(253, 172, 8)"/></g><g style="" fill="rgb(253, 172, 8)"><path d="M21,31H9c-0.6,0-1-0.4-1-1s0.4-1,1-1h12c0.6,0,1,0.4,1,1S21.6,31,21,31z" style="" fill="rgb(253, 172, 8)"/></g></g></svg>