<svg xmlns="http://www.w3.org/2000/svg" xmlns:xlink="http://www.w3.org/1999/xlink" version="1.1" x="0px" y="0px" viewBox="0 0 64 64" style="enable-background:new 0 0 64 64;max-width:100%" xml:space="preserve" height="100%"><g style="" fill="rgb(253, 172, 8)"><path d="M58,15h-1V1H33v14h-2V1H7v14H6c-2.757,0-5,2.243-5,5v32c0,2.757,2.243,5,5,5h13v4h-4v2h34v-2h-4v-4h13c2.757,0,5-2.243,5-5   V20C63,17.243,60.757,15,58,15z M35,3h20v18H44h-9V3z M22,23h9h2h9v18H22V23z M33,17v4h-2v-4H33z M9,3h20v18h-9H9V3z M6,17h1v6h13   v20h24V23h13v-6h1c1.654,0,3,1.346,3,3v27H3V20C3,18.346,4.346,17,6,17z M43,61H21v-4h22V61z M58,55H6c-1.654,0-3-1.346-3-3v-3h58   v3C61,53.654,59.654,55,58,55z" style="" fill="rgb(253, 172, 8)"/><rect x="26" y="51" width="2" height="2" style="" fill="rgb(253, 172, 8)"/><rect x="30" y="51" width="4" height="2" style="" fill="rgb(253, 172, 8)"/><rect x="36" y="51" width="2" height="2" style="" fill="rgb(253, 172, 8)"/><path d="M26,38.618L39.236,32L26,25.382V38.618z M28,28.618L34.764,32L28,35.382V28.618z" style="" fill="rgb(253, 172, 8)"/><path d="M51.672,12.743C52.528,11.886,53,10.748,53,9.536C53,7.035,50.966,5,48.465,5c-1.211,0-2.351,0.472-3.207,1.328L45,6.586   l-0.258-0.257C43.886,5.472,42.746,5,41.535,5C39.034,5,37,7.035,37,9.536c0,1.212,0.472,2.351,1.328,3.207L45,19.414   L51.672,12.743z M39,9.536C39,8.138,40.138,7,41.535,7c0.677,0,1.313,0.264,1.793,0.743L45,9.414l1.672-1.671v0   C47.151,7.264,47.788,7,48.465,7C49.862,7,51,8.138,51,9.536c0,0.678-0.264,1.314-0.742,1.793L45,16.586l-5.258-5.257   C39.264,10.85,39,10.213,39,9.536z" style="" fill="rgb(253, 172, 8)"/><path d="M25,7V5h-5c-1.654,0-3,1.346-3,3v5.184C16.686,13.072,16.352,13,16,13c-1.654,0-3,1.346-3,3s1.346,3,3,3s3-1.346,3-3V8   c0-0.551,0.448-1,1-1H25z M16,17c-0.552,0-1-0.449-1-1s0.448-1,1-1s1,0.449,1,1S16.552,17,16,17z" style="" fill="rgb(253, 172, 8)"/></g></svg>