<svg xmlns="http://www.w3.org/2000/svg" xmlns:xlink="http://www.w3.org/1999/xlink" version="1.1" x="0px" y="0px" viewBox="0 0 32 32" enable-background="new 0 0 32 32" xml:space="preserve" style="max-width:100%" height="100%"><g style="" fill="rgb(253, 172, 8)"><path d="M13.4995117,18.5c-0.0751953,0-0.1513672-0.0166016-0.2231445-0.0527344l-2-1   c-0.2470703-0.1240234-0.347168-0.4238281-0.2236328-0.6708984c0.1240234-0.2470703,0.4233398-0.3476562,0.6708984-0.2236328l2,1   c0.2470703,0.1240234,0.347168,0.4238281,0.2236328,0.6708984C13.859375,18.3984375,13.6831055,18.5,13.4995117,18.5z" style="" fill="rgb(253, 172, 8)"/><path d="M14,19.5c0,0.2749996-0.2250004,0.5-0.5,0.5h-2c-0.2749996,0-0.5-0.2250004-0.5-0.5l0,0c0-0.2749996,0.2250004-0.5,0.5-0.5   h2C13.7749996,19,14,19.2250004,14,19.5L14,19.5z" style="" fill="rgb(253, 172, 8)"/><path d="M16,26c-2.2158203,0-3.4995117-1.1923828-3.9619141-2.3085938   c-0.1054688-0.2548828,0.015625-0.5478516,0.2705078-0.6533203s0.5478516,0.015625,0.6533203,0.2705078   C13.1264648,23.7050781,13.831543,25,16,25s2.8735352-1.2949219,3.0380859-1.6914062   c0.105957-0.2548828,0.3999023-0.3769531,0.6533203-0.2705078c0.2548828,0.1054688,0.3759766,0.3984375,0.2705078,0.6533203   C19.4995117,24.8076172,18.2158203,26,16,26z" style="" fill="rgb(253, 172, 8)"/><path d="M19.5,19c0.2757034,0,0.5,0.2243042,0.5,0.5S19.7757034,20,19.5,20S19,19.7756958,19,19.5S19.2242966,19,19.5,19 M19.5,18   c-0.8284302,0-1.5,0.6715698-1.5,1.5s0.6715698,1.5,1.5,1.5s1.5-0.6715698,1.5-1.5S20.3284302,18,19.5,18L19.5,18z" style="" fill="rgb(253, 172, 8)"/><path d="M21,16.5c0,0.2749996-0.2250004,0.5-0.5,0.5h-2c-0.2749996,0-0.5-0.2250004-0.5-0.5l0,0c0-0.2749996,0.2250004-0.5,0.5-0.5   h2C20.7749996,16,21,16.2250004,21,16.5L21,16.5z" style="" fill="rgb(253, 172, 8)"/><path d="M16,2C8.0186768,2,2,7.5887451,2,15c0,3.2495728,1.0770264,4.4912109,1.2929077,4.7070923   C3.4811401,19.8953247,3.7358398,20,3.999939,20c0.0224609,0,0.0449829-0.0011597,0.0675659-0.0026245   C4.5197144,27.43573,7.7086182,30,16,30c8.2952881,0,11.4832153-2.5668945,11.9331055-10.0132446   C27.9555664,19.9882812,27.9772949,20,27.9997559,20c0.2603149,0,0.5160522-0.1015625,0.7073364-0.2929077   C28.9229736,19.4912109,30,18.2495728,30,15C30,7.5887451,23.9813232,2,16,2z M16,29   c-7.9912109,0-10.7052612-2.3336182-10.9669189-9.7558594c0.4569092-0.7348633,1.4949341-2.6473389,1.8482666-5.3905029   C7.9984131,14.4487305,9.6638794,15,12,15c3.0263062,0,5.3988647-1.0356445,7.3052979-1.8677368   C20.6972046,12.5246582,21.899231,12,23,12c3.4355469,0,3.9221191,4.9006348,3.9890137,6.536499   C26.8760376,26.5270386,24.243042,29,16,29z M28,19c0-3-1-8-5-8c-3,0-6,3-11,3c-3,0-5-1-6-2c0,4.25-2,7-2,7s-1-1-1-4   C3,8,8.7107544,3,16,3s13,5,13,12C29,18,28,19,28,19z" style="" fill="rgb(253, 172, 8)"/></g></svg>