<svg xmlns="http://www.w3.org/2000/svg" xmlns:xlink="http://www.w3.org/1999/xlink" version="1.1" x="0px" y="0px" viewBox="0 0 64 64" style="enable-background:new 0 0 64 64;max-width:100%" xml:space="preserve" height="100%"><g style="" fill="rgb(253, 172, 8)"><rect x="38" y="47" width="2" height="2" style="" fill="rgb(253, 172, 8)"/><rect x="28" y="47" width="8" height="2" style="" fill="rgb(253, 172, 8)"/><rect x="24" y="47" width="2" height="2" style="" fill="rgb(253, 172, 8)"/><path d="M58,11h-9.273C45.514,5.052,39.222,1,32,1S18.486,5.052,15.273,11H6c-2.757,0-5,2.243-5,5v32c0,2.757,2.243,5,5,5h21.382   l-2,4H18c-2.757,0-5,2.243-5,5v1h38v-1c0-2.757-2.243-5-5-5h-7.382l-2-4H58c2.757,0,5-2.243,5-5V16C63,13.243,60.757,11,58,11z    M27.966,8.208l-2.638-3.77c-0.012-0.018-0.027-0.034-0.04-0.052c1.803-0.778,3.77-1.235,5.829-1.342   C31.043,3.445,31,3.851,31,4.263c0,2.045,0.916,3.95,2.513,5.229l1.242,0.993C35.546,11.117,36,12.062,36,13.076   c0,1.364-0.819,2.574-2.085,3.081l-0.412,0.164C31.982,16.931,31,18.381,31,20.019C31,22.214,32.786,24,34.981,24h2.626   c3.045,0,5.688-2.063,6.428-5.019c0.459-1.838,2.032-3.231,3.913-3.468l0.418-0.052C48.768,16.909,49,18.426,49,20   c0,7.981-5.535,14.676-12.963,16.495c0.184-1.589,1.377-2.884,2.99-3.153l0.571-0.096C40.99,33.016,42,31.823,42,30.413   c0-1.275-0.857-2.411-2.084-2.764l-4.188-1.196C34.674,26.152,33.584,26,32.489,26h-0.584c-2.751,0-5.431,0.97-7.545,2.731   c-1.504,1.253-3.39,2.023-5.353,2.208c-1.453-1.723-2.574-3.734-3.254-5.939h1.845c2.467,0,4.647-1.572,5.427-3.911l0.232-0.695   c0.347-1.041,1.129-1.871,2.148-2.278C27.588,17.241,29,15.156,29,12.804v-1.315C29,10.308,28.642,9.173,27.966,8.208z    M34.004,36.871C33.346,36.949,32.679,37,32,37c-4.329,0-8.273-1.64-11.277-4.314c1.802-0.413,3.5-1.237,4.917-2.418   C27.396,28.806,29.621,28,31.905,28h0.584c0.91,0,1.814,0.127,2.689,0.377l4.188,1.195C39.739,29.68,40,30.025,40,30.413   c0,0.429-0.307,0.791-0.73,0.861l-0.571,0.096C35.991,31.821,34.026,34.13,34.004,36.871z M32,39c10.477,0,19-8.523,19-19   c0-1.023-0.104-2.02-0.261-3H57v26H7V17h6.261C13.104,17.98,13,18.977,13,20C13,30.477,21.523,39,32,39z M47.713,13.528   L47.7,13.529c-2.695,0.338-4.947,2.334-5.605,4.967C41.579,20.56,39.734,22,37.608,22h-2.626C33.889,22,33,21.111,33,20.019   c0-0.814,0.489-1.537,1.245-1.84l0.412-0.164C36.688,17.201,38,15.263,38,13.076c0-1.625-0.728-3.14-1.997-4.154l-1.241-0.993   C33.642,7.033,33,5.697,33,4.263c0-0.409,0.073-0.809,0.179-1.203C39.75,3.514,45.305,7.703,47.713,13.528z M23.468,5.319   c0.07,0.09,0.157,0.175,0.221,0.267l2.638,3.77C26.768,9.983,27,10.721,27,11.488v1.315c0,1.53-0.918,2.886-2.339,3.454   c-1.565,0.627-2.769,1.903-3.302,3.503l-0.232,0.695C20.62,21.978,19.202,23,17.598,23h-2.316C15.107,22.024,15,21.025,15,20   C15,13.737,18.413,8.269,23.468,5.319z M48.829,61H15.171c0.413-1.164,1.525-2,2.829-2h28C47.304,59,48.416,59.836,48.829,61z    M36.382,57h-8.764l2-4h4.764L36.382,57z M61,48c0,1.654-1.346,3-3,3H6c-1.654,0-3-1.346-3-3V16c0-1.654,1.346-3,3-3h8.353   c-0.259,0.65-0.477,1.318-0.663,2H5v30h54V15h-8.69c-0.187-0.682-0.405-1.35-0.663-2H58c1.654,0,3,1.346,3,3V48z" style="" fill="rgb(253, 172, 8)"/></g></svg>